<svg xmlns="http://www.w3.org/2000/svg" xmlns:xlink="http://www.w3.org/1999/xlink" width="512" height="512" viewBox="0 0 512 512"><defs><polygon id="a" points=".838 194.87 184.389 194.87 184.389 .927 .838 .927"/><polygon id="c" points="163.816 3.025 7.058 3.025 7.058 152.244 163.816 152.244 163.816 3.025"/></defs><g fill="none" fill-rule="evenodd"><path fill="#B4814A" d="M469.460891,455.812086 C438.312211,495.557175 388.153117,508.164442 357.418626,483.966622 C326.692589,459.777275 327.022249,407.941749 358.170928,368.19666 C389.319608,328.443099 439.478702,315.835831 470.213192,340.033651 C500.947683,364.231471 500.60957,416.066997 469.460891,455.812086"/><g transform="translate(321.208 314.106)"><mask id="b" fill="#fff"><use xlink:href="#a"/></mask><path fill="#2E2E30" d="M111.920543,26.3447834 C89.0471849,26.3447834 64.1451472,39.9772387 46.9436377,61.9382854 C20.1650717,96.0999136 18.8633358,140.038952 44.0527698,159.87337 C52.006883,166.143113 62.1164679,169.45591 73.2911094,169.45591 C96.1729208,169.45591 121.074958,155.814982 138.276468,133.853935 C165.055034,99.6838345 166.35677,55.761741 141.175789,35.9273235 C133.213223,29.6575802 123.095185,26.3447834 111.920543,26.3447834 M73.2911094,194.873788 C56.3854491,194.873788 40.8576,189.680068 28.3812226,179.860295 C-7.79689057,151.366853 -8.41394717,91.4314967 26.9949585,46.2385094 C49.2259019,17.8636848 80.9747321,0.926905289 111.920543,0.926905289 C128.834657,0.926905289 144.362506,6.11215243 156.838883,15.931926 C193.025449,44.4253674 193.642506,104.369197 158.225147,149.562184 C135.985751,177.937009 104.236921,194.873788 73.2911094,194.873788" mask="url(#b)"/></g><path fill="#B4814A" d="M478.055728,347.559037 C478.055728,347.559037 413.949464,368.605041 413.814219,412.001831 C413.712785,447.154757 350.696936,473.58935 350.696936,473.58935"/><path fill="#2E2E30" d="M350.712996,486.296594 C345.759638,486.296594 341.051411,483.365066 339.014279,478.501778 C336.309374,472.028692 339.34394,464.581254 345.801902,461.870013 C360.137902,455.820558 401.074958,433.690059 401.142581,411.966246 C401.294732,359.986685 471.140468,336.44973 474.115864,335.475378 C480.7936,333.289441 487.927789,336.924197 490.108619,343.600627 C492.289449,350.268583 488.663185,357.444897 482.010808,359.630835 C466.592845,364.748301 426.5856,384.125197 426.501072,412.0425 C426.365826,454.40563 362.842808,482.272097 355.598732,485.31377 C354.001147,485.983107 352.33594,486.296594 350.712996,486.296594"/><path fill="#010202" d="M470.212347,340.034498 C465.436498,336.272652 460.153479,333.510576 454.583064,331.485619 C464.548951,357.886321 458.260045,393.064665 435.648725,421.922429 C409.343517,455.490973 369.505328,469.597896 339.235743,458.625845 C342.997253,468.589653 348.998762,477.341876 357.417781,483.967469 C388.152272,508.165289 438.311366,495.558022 469.460045,455.812933 C500.608725,416.067844 500.946838,364.232318 470.212347,340.034498" opacity=".15"/><path fill="#B4814A" d="M139.490294,478.158637 C100.683351,486.529592 63.9727094,468.881112 57.4978415,438.735508 C51.0229736,408.581432 77.2352,377.351332 116.042143,368.980378 C154.85754,360.609423 191.568181,378.257903 198.043049,408.411979 C204.517917,438.557583 178.297238,469.787683 139.490294,478.158637"/><path fill="#2E2E30" d="M135.313751,379.610982 C129.827864,379.610982 124.232091,380.212538 118.712392,381.407178 C102.677374,384.86401 88.7471094,392.845224 79.4912604,403.86811 C71.0130717,413.975953 67.5981283,425.397053 69.8972981,436.047144 C73.8616755,454.58525 94.5626566,467.531422 120.216996,467.531422 C125.702883,467.531422 131.290204,466.921393 136.826808,465.726753 C168.736242,458.846981 190.637525,434.327201 185.641902,411.078315 C181.660619,392.548682 160.968091,379.610982 135.313751,379.610982 M120.216996,492.9493 C82.5004679,492.9493 51.6138264,471.75079 45.0966943,441.401843 C41.1238642,422.897628 46.4406943,403.757966 60.0920151,387.507469 C72.9487698,372.188961 91.8662038,361.191493 113.378657,356.548494 C120.656543,354.98953 128.035864,354.193104 135.313751,354.193104 C173.021826,354.193104 203.908468,375.383141 210.442506,405.723615 C218.362808,442.68121 187.738204,480.748719 142.160543,490.585438 C134.882657,492.144401 127.494883,492.9493 120.216996,492.9493"/><path fill="#B4814A" d="M199.014279,416.920191 C199.014279,416.920191 149.624392,397.348424 127.765374,423.571202 C110.065147,444.812075 58.6296755,429.061464 58.6296755,429.061464"/><path fill="#2E2E30" d="M95.0723623,447.375892 C76.0112302,447.375892 58.2687396,442.233008 54.9298717,441.20782 C48.2352302,439.157445 44.4821736,432.065857 46.5108528,425.355537 C48.5479849,418.645217 55.6821736,414.883371 62.3260981,416.899856 C79.8657208,422.220665 109.695758,425.440263 118.038702,415.425619 C145.45123,382.534885 201.307532,404.165499 203.682777,405.105961 C210.183004,407.673166 213.378174,415.069769 210.80006,421.593691 C208.238853,428.10914 200.901796,431.294848 194.376211,428.75306 C193.970475,428.575135 152.940438,413.188846 137.50557,431.718479 C127.353721,443.88517 110.769268,447.375892 95.0723623,447.375892"/><path fill="#010202" d="M198.038823,408.40859 C194.404106,391.463338 181.209238,378.46633 163.458294,371.823791 C163.720332,372.72189 164.033087,373.59457 164.227502,374.518086 C170.70237,404.66369 144.490143,435.893789 105.674747,444.264744 C88.6845585,447.933391 72.0916528,446.611661 58.2628226,441.426414 C66.309917,469.90291 101.870974,486.272024 139.486068,478.155248 C178.301464,469.784293 204.513691,438.554194 198.038823,408.40859" opacity=".15"/><path fill="#B4814A" d="M339.649087,258.93198 C343.68954,310.87765 314.408936,355.528389 274.24954,358.671734 C234.090143,361.806605 198.250143,322.247914 194.209691,270.302244 C190.169238,218.356574 219.449842,173.705835 259.609238,170.570963 C299.768634,167.427619 335.608634,206.98631 339.649087,258.93198"/><path fill="#2E2E30" d="M264.079094,183.102824 C262.929509,183.102824 261.771472,183.145187 260.596528,183.238386 C245.170113,184.441499 231.079245,193.634298 220.935849,209.113786 C210.107774,225.609989 205.112151,246.986424 206.844981,269.311794 C210.327547,313.945588 239.777208,348.513902 273.267321,346.006005 C306.385509,343.404909 330.492981,304.786679 327.010415,259.915652 C323.654642,216.840821 296.013887,183.102824 264.079094,183.102824 M269.784755,371.550973 C224.697358,371.550973 185.949585,327.510262 181.571019,271.294389 C179.390189,243.377086 185.848151,216.332463 199.736151,195.150898 C214.291925,172.961091 235.204226,159.726849 258.627019,157.896762 C305.861434,154.287423 347.728302,199.471938 352.29283,257.94153 C356.865811,316.783918 322.302189,367.653565 275.23683,371.339157 C273.411019,371.483192 271.59366,371.550973 269.784755,371.550973"/><path fill="#B4814A" d="M270.79994,170.789557 C270.79994,170.789557 236.819562,231.597594 266.928543,264.615418 C291.323411,291.363498 261.924468,355.492804 261.924468,355.492804"/><path fill="#2E2E30" d="M261.925313,368.201744 C260.150219,368.201744 258.358219,367.828948 256.642294,367.040994 C250.277313,364.117938 247.487879,356.577301 250.404106,350.197413 C257.098747,335.522825 272.7872,289.880788 257.572106,273.198188 C221.689842,233.851312 258.172257,167.392034 259.73603,164.579122 C263.159426,158.436468 270.885313,156.275948 276.996709,159.707362 C283.099653,163.130303 285.280483,170.86581 281.86554,176.983046 C273.700106,191.716943 256.760634,234.630794 276.286672,256.049593 C305.516558,288.084592 276.8192,353.450902 273.446521,360.796668 C271.307955,365.456613 266.718068,368.201744 261.925313,368.201744"/><path fill="#010202" d="M339.649087,258.93198 C336.73286,221.466028 317.240634,190.53247 291.54403,177.332119 C299.27837,190.998464 304.451502,207.257434 305.837766,225.041476 C309.878219,276.987146 280.597615,321.637885 240.438219,324.78123 C229.246672,325.65391 218.427049,323.112122 208.503426,318.011601 C223.363502,344.259797 247.834445,360.730582 274.24954,358.671734 C314.408936,355.528389 343.68954,310.87765 339.649087,258.93198" opacity=".15"/><path fill="#B4814A" d="M117.907683,217.445767 C142.1504,248.540304 142.319457,289.014039 118.279608,307.840214 C94.2397585,326.674861 55.0947019,316.744944 30.8519849,285.650406 C6.60926792,254.555869 6.44021132,214.082134 30.4800604,195.247486 C54.5199094,176.412839 93.664966,186.351229 117.907683,217.445767"/><path fill="#2E2E30" d="M59.321117,28.3553376 C51.2740226,28.3553376 43.9961358,30.7192002 38.2904755,35.1927468 C19.795683,49.6809373 20.9452679,82.2327666 40.8347774,107.752316 C53.7507019,124.307828 72.3722868,134.593596 89.4385509,134.593596 C97.4856453,134.593596 104.763532,132.229733 110.469192,127.756186 C118.938928,121.12212 123.579532,110.277159 123.520362,97.2208421 C123.461192,82.9529398 117.924589,68.0326453 107.916438,55.1966169 C95.008966,38.6411056 76.3873811,28.3553376 59.321117,28.3553376 M89.4385509,160.011474 C64.3759094,160.011474 38.7300226,146.328183 20.8607396,123.409729 C-7.6506566,86.8418752 -6.83073208,38.2852553 22.6696453,15.1634588 C32.8806642,7.16529985 45.5514566,2.93745945 59.321117,2.93745945 C84.3837585,2.93745945 110.021192,16.6207505 127.890475,39.5476766 C141.338928,56.7894706 148.794325,77.2423899 148.878853,97.1106979 C148.963381,118.207537 140.86557,136.203394 126.08157,147.785474 C115.870551,155.783633 103.199758,160.011474 89.4385509,160.011474" transform="translate(0 170.071)"/><path fill="#B4814A" d="M37.6362264,190.695144 C37.6362264,190.695144 41.5836981,243.344043 74.3806792,251.545545 C100.947925,258.196556 109.172528,311.014907 109.172528,311.014907"/><path fill="#2E2E30" d="M109.154777,323.711984 C103.026475,323.711984 97.6335698,319.24691 96.6530415,312.98564 C93.8128906,295.023672 83.787834,267.004698 71.3030038,263.878299 C30.0954566,253.567113 25.1759094,194.165532 24.9899472,191.649162 C24.4658717,184.6423 29.7066264,178.550482 36.6886642,178.025179 C43.5016453,177.474459 49.7482868,182.727487 50.2723623,189.725876 C50.3315321,190.31896 54.3973434,233.453099 77.4482113,239.214485 C111.208815,247.661693 120.726702,302.79307 121.698777,309.054341 C122.772287,315.984949 118.055608,322.474981 111.13274,323.551004 C110.473419,323.661148 109.805645,323.711984 109.154777,323.711984"/><path fill="#010202" d="M117.907683,217.444919 C110.257872,207.633618 101.120362,199.940474 91.4503245,194.585774 C108.026325,223.655354 105.752513,257.274734 84.4682868,273.948862 C68.0106264,286.844199 44.4864,286.242643 23.4980226,274.6182 C25.6450415,278.380046 28.0710038,282.082583 30.8519849,285.649559 C55.0947019,316.744097 94.2397585,326.674014 118.279608,307.839367 C142.319457,289.013191 142.1504,248.539457 117.907683,217.444919" opacity=".15"/><path fill="#B4814A" d="M161.617268,122.019427 C130.5024,146.200301 90.1232302,146.208774 71.4255698,122.036372 C52.7363623,97.8639698 62.803683,58.6696017 93.9185509,34.488727 C125.033419,10.3078523 165.412589,10.3078523 184.110249,34.4717818 C202.799457,58.6441839 192.732136,97.8385519 161.617268,122.019427"/><g transform="translate(42.264 .619)"><mask id="d" fill="#fff"><use xlink:href="#c"/></mask><path fill="#2E2E30" d="M101.411985,28.4417584 C87.168966,28.4417584 72.2666264,33.93202 59.4183245,43.9127735 C46.5869283,53.8850544 37.5593057,66.9922069 34.009117,80.8195326 C30.7632302,93.4606906 32.5974943,105.110551 39.1907019,113.625541 C45.7670038,122.14053 56.5612679,126.825892 69.5870792,126.825892 C83.8300981,126.825892 98.7408906,121.33563 111.58074,111.354877 C137.125192,91.5119866 146.203532,60.2395239 131.825268,41.6421097 C125.23206,33.1271206 114.437796,28.4417584 101.411985,28.4417584 M69.5870792,152.24377 C48.5479849,152.24377 30.6364377,144.059213 19.1490415,129.198227 C7.64473962,114.337241 4.20443774,94.9010371 9.45364528,74.4820083 C14.3985509,55.2322019 26.6213434,37.2448168 43.8820226,23.8241772 C61.1427019,10.4120101 81.5731925,3.02388024 101.411985,3.02388024 C122.451079,3.02388024 140.362626,11.208437 151.866928,26.0694231 C174.816362,55.7405595 163.709343,103.017813 127.117042,131.443473 C109.856362,144.85564 89.4258717,152.24377 69.5870792,152.24377" mask="url(#d)"/></g><path fill="#B4814A" d="M188.621525,41.6658885 C188.621525,41.6658885 136.087185,45.4107892 127.7696,78.2506878 C121.032694,104.863206 68.3039396,112.895256 68.3039396,112.895256"/><path fill="#2E2E30" d="M68.2861887,125.6025 C62.1325283,125.6025 56.7396226,121.103536 55.7844528,114.816847 C54.7193962,107.886239 59.4698868,101.40468 66.3758491,100.328657 C84.3127547,97.558108 112.316981,87.6281903 115.47834,75.1225942 C125.926038,33.8609054 185.205736,29.1670706 187.724679,28.9891454 C194.664453,28.4384247 200.784302,33.7592339 201.266113,40.7660956 C201.76483,47.7560121 196.515623,53.830885 189.542038,54.3392426 C188.874264,54.3985509 145.900075,58.3213768 140.05917,81.3753923 C131.504906,115.18117 76.4600755,124.509531 70.213434,125.458466 C69.562566,125.560137 68.9201509,125.6025 68.2861887,125.6025"/><path fill="#010202" d="M184.106023,34.4751708 C177.690325,26.1804699 168.68806,20.8003524 158.409419,18.1992562 C163.531834,41.1177096 152.154325,69.204465 127.801721,88.1323115 C107.37123,104.010013 82.9763623,109.39013 63.3150792,104.416699 C64.7351547,110.788114 67.3639849,116.77826 71.4297962,122.031288 C90.1274566,146.20369 130.506626,146.195218 161.613042,122.022816 C192.736362,97.841941 202.803683,58.6475729 184.106023,34.4751708" opacity=".15"/><path fill="#B4814A" d="M489.946325,138.442765 C480.174853,178.153963 447.352513,204.190343 416.651834,196.59887 C385.942702,189.007397 368.977872,150.660292 378.749343,110.940621 C388.529268,71.2294226 421.343155,45.1930427 452.043834,52.7845157 C482.752966,60.3844612 499.717796,98.7315667 489.946325,138.442765"/><path fill="#2E2E30" d="M441.225902,64.1801977 C419.612015,64.1801977 398.057298,85.5905237 391.058355,113.990766 C387.000996,130.470024 388.082958,147.050953 394.109826,160.666463 C399.64643,173.172059 408.72477,181.551486 419.688091,184.262727 C422.22394,184.889701 424.844317,185.211661 427.464694,185.211661 C449.078581,185.211661 470.641751,163.792862 477.640694,135.401092 C485.7216,102.552721 472.873298,71.0345522 449.010958,65.1291318 C446.475109,64.5021575 443.854732,64.1801977 441.225902,64.1801977 M427.464694,210.629539 C422.798732,210.629539 418.141223,210.061873 413.610506,208.943486 C394.870581,204.30896 379.714657,190.820539 370.932166,170.969176 C362.631487,152.227728 361.042355,129.826104 366.443713,107.898948 C376.299713,67.8403722 407.752694,38.7623196 441.225902,38.7623196 C445.900317,38.7623196 450.557826,39.3299855 455.088543,40.4483722 C492.526128,49.7089524 513.683562,95.0375018 502.255336,141.49291 C492.399336,181.551486 460.946355,210.629539 427.464694,210.629539"/><path fill="#B4814A" d="M460.332679,55.7202806 C460.332679,55.7202806 420.029585,92.6355123 434.348679,124.695929 C445.945962,150.664528 408.24634,191.189098 408.24634,191.189098"/><path fill="#2E2E30" d="M408.256483,203.891259 C405.162747,203.891259 402.060558,202.7644 399.617691,200.485264 C394.495275,195.706703 394.207879,187.666181 398.95837,182.531769 C409.380709,171.280122 428.906747,143.616998 422.778445,129.882871 C404.926068,89.9090212 449.861313,48.0966117 451.780106,46.3343055 C456.944785,41.6150528 464.974974,41.9624304 469.700106,47.1476776 C474.416785,52.3244521 474.053313,60.3565016 468.897087,65.0926995 C468.263125,65.694256 435.761992,96.7464304 445.922294,119.503904 C460.537238,152.216713 421.966974,195.071256 417.520785,199.849817 C415.0272,202.535639 411.637615,203.891259 408.256483,203.891259"/><path fill="#010202" d="M453.790189,53.3394727 C459.402868,68.2004588 460.645434,86.2132617 456.131623,104.548024 C446.360151,144.267695 413.546264,170.304075 382.837132,162.712602 C382.236981,162.560095 381.687547,162.322861 381.095849,162.153409 C387.63834,179.479929 400.12317,192.510828 416.648453,196.603106 C447.357585,204.194579 480.171472,178.1582 489.942943,138.438529 C499.528453,99.4983394 483.366642,61.9476607 453.790189,53.3394727" opacity=".15"/></g></svg>